<svg xmlns="http://www.w3.org/2000/svg" viewBox="0 0 22.99 23"><title>icon-social-insta</title><path d="M17,1.5A4.51,4.51,0,0,1,21.49,6V17A4.51,4.51,0,0,1,17,21.5H6A4.51,4.51,0,0,1,1.5,17V6A4.51,4.51,0,0,1,6,1.5H17M17,0H6A6,6,0,0,0,0,6V17a6,6,0,0,0,6,6H17a6,6,0,0,0,6-6V6a6,6,0,0,0-6-6Z" fill="#231f20"/><path d="M11.49,7.08a4.43,4.43,0,1,1-4.43,4.43,4.43,4.43,0,0,1,4.43-4.43m0-1.5a5.93,5.93,0,1,0,5.93,5.93,5.93,5.93,0,0,0-5.93-5.93Z" fill="#231f20"/><circle cx="17.63" cy="5.38" r="1.34" fill="#231f20"/></svg>